<?xml version="1.0" standalone="no"?>
<!DOCTYPE svg PUBLIC "-//W3C//DTD SVG 20010904//EN"
 "http://www.w3.org/TR/2001/REC-SVG-20010904/DTD/svg10.dtd">
<svg version="1.0" xmlns="http://www.w3.org/2000/svg"
 width="260.000000pt" height="260.000000pt" viewBox="0 0 260.000000 260.000000"
 preserveAspectRatio="xMidYMid meet">
<metadata>
Created by potrace 1.11, written by Peter Selinger 2001-2013
</metadata>
<g transform="translate(0.000000,260.000000) scale(0.100000,-0.100000)"
fill="#000000" stroke="none">
<path d="M465 2584 c-20 -15 -20 -27 -21 -1272 0 -790 3 -1264 9 -1277 6 -11
14 -23 19 -26 5 -3 262 -5 571 -4 597 2 627 4 774 54 194 65 322 209 371 418
19 78 24 134 26 318 4 286 -64 457 -233 586 l-33 26 33 44 c49 63 95 172 114
264 15 73 22 270 12 320 -3 11 -8 45 -12 75 -16 117 -73 243 -144 318 -58 60
-174 124 -251 139 -14 2 -45 9 -70 15 -30 8 -234 12 -595 14 -472 2 -553 1
-570 -12z m1111 -388 c80 -33 105 -93 109 -271 7 -250 -34 -346 -156 -368 -30
-6 -281 -9 -561 -8 l-98 1 0 329 c0 225 3 330 11 333 6 2 155 3 332 2 277 -1
328 -4 363 -18z m27 -1009 c78 -21 124 -58 156 -126 26 -55 26 -60 26 -271 0
-203 -1 -218 -23 -265 -36 -78 -92 -117 -190 -131 -52 -8 -670 -13 -689 -6
-10 3 -13 94 -13 407 0 370 1 404 17 407 9 2 161 2 337 2 253 -1 333 -5 379
-17z"/>
</g>
</svg>
